<?xml version="1.0" encoding="utf-8"?>
<!-- Generator: Adobe Illustrator 13.0.2, SVG Export Plug-In . SVG Version: 6.00 Build 14948)  -->
<!DOCTYPE svg PUBLIC "-//W3C//DTD SVG 1.1//EN" "http://www.w3.org/Graphics/SVG/1.1/DTD/svg11.dtd">
<svg version="1.1" id="Layer_1" xmlns="http://www.w3.org/2000/svg" xmlns:xlink="http://www.w3.org/1999/xlink" x="0px" y="0px"
	 width="144.331px" height="104.98px" viewBox="0 0 144.331 104.98" enable-background="new 0 0 144.331 104.98"
	 xml:space="preserve">
<path fill="#FFFFFF" d="M57.477,44.62c5.519-0.558,8.848,2.844,9.635,10.578c2.24,22.082-8.44,40.435-27.945,42.416
	C17.102,99.853,2.715,81.71,0.317,58.124C-2.215,33.176,10.639,13.663,30.433,11.65c13.203-1.34,27.862,3.705,29.034,15.259
	c0.454,4.622-1.967,8.14-6.4,8.601c-5.824,0.571-9.435-7.691-20.174-6.603c-11.131,1.128-16.885,13.151-15.436,27.481
	c1.297,12.718,7.928,25.109,20.344,23.853c8.381-0.851,13.543-7.802,13.366-17.472l-9.172,0.944
	c-5.025,0.505-8.338-2.664-8.855-7.856c-0.553-5.426,2.071-8.973,7.092-9.487L57.477,44.62z"/>
<path fill="#FFFFFF" d="M126.495,62.15c2.431,23.979-8.57,40.72-27.64,42.651c-19.081,1.952-33.224-12.259-35.652-36.212
	c-2.428-23.969,8.565-40.732,27.634-42.667C109.92,23.984,124.062,38.186,126.495,62.15 M78.932,66.984
	C80.15,78.957,85.931,90.06,97.242,88.9c11.298-1.143,14.733-13.159,13.524-25.145c-1.226-11.992-6.999-23.076-18.303-21.933
	C81.156,42.975,77.713,55,78.932,66.984"/>
<path fill="#FFFFFF" d="M141.116,45.865c0.505,4.982-1.582,9.584-6.103,10.043c-4.527,0.461-7.484-3.621-7.996-8.617l-3.785-37.208
	c-0.504-4.982,1.591-9.588,6.106-10.049c4.524-0.455,7.496,3.638,8.006,8.608L141.116,45.865z M135.479,60.475
	c4.249-0.432,8.299,3.446,8.797,8.42c0.516,5.107-2.68,9.589-6.917,10.043c-4.261,0.426-8.303-3.353-8.812-8.437
	C128.042,65.515,131.229,60.906,135.479,60.475"/>
</svg>
